<svg id="visual" viewBox="0 0 960 300" width="960" height="300" xmlns="http://www.w3.org/2000/svg" xmlns:xlink="http://www.w3.org/1999/xlink" version="1.1"><rect x="0" y="0" width="960" height="300" fill="#001220"></rect><path d="M0 199L22.8 195.3C45.7 191.7 91.3 184.3 137 186.3C182.7 188.3 228.3 199.7 274 210.8C319.7 222 365.3 233 411.2 238.2C457 243.3 503 242.7 548.8 230.7C594.7 218.7 640.3 195.3 686 195.7C731.7 196 777.3 220 823 228.2C868.7 236.3 914.3 228.7 937.2 224.8L960 221L960 0L937.2 0C914.3 0 868.7 0 823 0C777.3 0 731.7 0 686 0C640.3 0 594.7 0 548.8 0C503 0 457 0 411.2 0C365.3 0 319.7 0 274 0C228.3 0 182.7 0 137 0C91.3 0 45.7 0 22.8 0L0 0Z" fill="#fa7268"></path><path d="M0 176L22.8 170C45.7 164 91.3 152 137 146.3C182.7 140.7 228.3 141.3 274 151.7C319.7 162 365.3 182 411.2 187.5C457 193 503 184 548.8 177.7C594.7 171.3 640.3 167.7 686 166.3C731.7 165 777.3 166 823 160.5C868.7 155 914.3 143 937.2 137L960 131L960 0L937.2 0C914.3 0 868.7 0 823 0C777.3 0 731.7 0 686 0C640.3 0 594.7 0 548.8 0C503 0 457 0 411.2 0C365.3 0 319.7 0 274 0C228.3 0 182.7 0 137 0C91.3 0 45.7 0 22.8 0L0 0Z" fill="#f3665b"></path><path d="M0 148L22.8 140.7C45.7 133.3 91.3 118.7 137 112.2C182.7 105.7 228.3 107.3 274 111.7C319.7 116 365.3 123 411.2 125.3C457 127.7 503 125.3 548.8 125.2C594.7 125 640.3 127 686 122.8C731.7 118.7 777.3 108.3 823 105.7C868.7 103 914.3 108 937.2 110.5L960 113L960 0L937.2 0C914.3 0 868.7 0 823 0C777.3 0 731.7 0 686 0C640.3 0 594.7 0 548.8 0C503 0 457 0 411.2 0C365.3 0 319.7 0 274 0C228.3 0 182.7 0 137 0C91.3 0 45.7 0 22.8 0L0 0Z" fill="#ec594d"></path><path d="M0 91L22.8 92.3C45.7 93.7 91.3 96.3 137 93.3C182.7 90.3 228.3 81.7 274 79.5C319.7 77.3 365.3 81.7 411.2 88.3C457 95 503 104 548.8 101.8C594.7 99.7 640.3 86.3 686 87C731.7 87.7 777.3 102.3 823 103.8C868.7 105.3 914.3 93.7 937.2 87.8L960 82L960 0L937.2 0C914.3 0 868.7 0 823 0C777.3 0 731.7 0 686 0C640.3 0 594.7 0 548.8 0C503 0 457 0 411.2 0C365.3 0 319.7 0 274 0C228.3 0 182.7 0 137 0C91.3 0 45.7 0 22.8 0L0 0Z" fill="#e54c3f"></path><path d="M0 27L22.8 34.5C45.7 42 91.3 57 137 59.5C182.7 62 228.3 52 274 44.7C319.7 37.3 365.3 32.7 411.2 30.3C457 28 503 28 548.8 35.2C594.7 42.3 640.3 56.7 686 57C731.7 57.3 777.3 43.7 823 41.3C868.7 39 914.3 48 937.2 52.5L960 57L960 0L937.2 0C914.3 0 868.7 0 823 0C777.3 0 731.7 0 686 0C640.3 0 594.7 0 548.8 0C503 0 457 0 411.2 0C365.3 0 319.7 0 274 0C228.3 0 182.7 0 137 0C91.3 0 45.7 0 22.8 0L0 0Z" fill="#dd3f31"></path></svg>